<?xml version="1.0" encoding="utf-8"?>
<!-- Generator: Adobe Illustrator 22.0.1, SVG Export Plug-In . SVG Version: 6.00 Build 0)  -->
<svg version="1.1" id="Layer_1" xmlns="http://www.w3.org/2000/svg" xmlns:xlink="http://www.w3.org/1999/xlink" x="0px" y="0px"
	 viewBox="0 0 170.1 241.2" style="enable-background:new 0 0 170.1 241.2;" xml:space="preserve">
<style type="text/css">
	.st0{fill:#E5C26A;}
</style>
<path class="st0" d="M48.1,158c4.8,1.2,9.1,2.9,10.1,7.8C63,155.3,86,155.3,85,169.2c-0.3,4.1-2.8,7.2-7.8,7.8
	c1.9-7.5-1.5-14.6-8.9-13.4c-14.3,2.2-1.2,40.8-17.9,41.9C51.8,191.1,53,169.5,48.1,158L48.1,158z M85.7,0c-1.4,1.8-2.1,3.9-2,6.7
	c-3.5-2.3-6.6-1.4-9.7-0.1c5.3,1,10,2.9,11.7,9.1c1.8-6.1,6.4-8.1,11.7-9.1c-3.1-1.3-6.2-2.3-9.7,0.1C87.8,3.9,87.1,1.8,85.7,0
	L85.7,0z M85.7,149.4c-1.4-1.8-2.1-3.9-2-6.7c-3.5,2.3-6.6,1.4-9.7,0.1c5.3-1,10-2.9,11.7-9.1c1.8,6.2,6.4,8.1,11.7,9.1
	c-3.1,1.3-6.2,2.3-9.7-0.1C87.8,145.5,87.1,147.7,85.7,149.4L85.7,149.4z M160.8,74.7c-1.8-1.4-3.9-2.1-6.7-2
	c2.3-3.5,1.4-6.6,0.1-9.7c-1,5.3-2.9,10-9.1,11.7c6.1,1.8,8.1,6.4,9.1,11.7c1.3-3.1,2.3-6.2-0.1-9.7C156.9,76.8,159,76.1,160.8,74.7
	L160.8,74.7z M9.3,74.7c1.8-1.4,3.9-2.1,6.7-2c-2.3-3.5-1.4-6.6-0.1-9.7c1,5.3,2.9,10,9.1,11.7c-6.2,1.8-8.1,6.4-9.1,11.7
	c-1.3-3.1-2.3-6.2,0.1-9.7C13.2,76.8,11.1,76.1,9.3,74.7L9.3,74.7z M74.9,125.6c-4.1-12.1-16.3,5.8-26.1,7.1
	c5.2,1.1,10.5,0.4,15.7-3c0,9.8,18.9,14.4,20.3-3.8c0-9.8-4.8-12.3-10.9-12.4c-9,0-20.7,10.5-32.1,10.5c-7.4,0-11.3-4.6-11.3-11.7
	c0-6.9,4.3-11.2,11.6-11.2c8.6,0,9,13.5,0.9,13.3c-4.5,0-6.5-5.6-1.6-8.4c-8.4,0-8.8,12.8,2.1,12.5c3.4-0.1,9.4-2.4,9.4-10.2
	c-0.3-6.7-5.6-12-13.7-10.9c5.9-9.7,1.4-20.5-9.4-20.4C17.2,77.4,14,91.5,24.9,95.2c0,2.9-8.3,3.9-3.3,12.5
	c1.1-9.6,13.4-12.5,10.5-19.2c-8.6,9.2-14.6-7.8-2.2-7.3c3.8-0.1,6.4,2.1,7.7,6.2c2.1,8.7-11.4,13.5-11.4,25
	c0,8.6,5.2,15.8,15.1,15.9c7.8,0.2,17.9-6.7,26.3-9.6c6.5-2.3,12.5-2.5,13.4,6.2c0.1,5.4-0.8,9.8-7.2,9.7
	C66.5,134.7,66.9,122.8,74.9,125.6L74.9,125.6z M119.7,96.4c-2.1,1.9-6,3.3-8.1,1.4c-4.6-4.2-4.2-15.5-4.3-24.9c0-1.2,0-2.5,0-3.7
	c0.2-6.7,0.3-27.1-23-27.1c-5.4,0-10.4,1-12.1,1.5c-7.5,1.9-12.5,5.8-12,12.4c4.2-3.3,10.7-6.5,19.8-6.6c1,0,0,0,0,0
	c7,0.1,13.6,3.1,15.2,13c0,0-2.7,0.6-3.3,0.7c-13.3,2.9-26,5.7-33.7,13.2c-7.3,7.2-9,16.9-2.7,24.5c11.3,13.3,31.2,3.2,40.5-5.1
	C94.7,111.4,121.1,106.8,119.7,96.4L119.7,96.4z M79.9,98.6c-11.4,2.5-18.3-10.1-11.3-18.4c4.7-5.6,14.3-8.6,21.4-9.8
	c1.8-0.3,5.1-0.6,5.7-0.6c-0.1,2.2-0.4,4.5-0.8,7.1C93.1,86.8,89.6,96.5,79.9,98.6L79.9,98.6z M96.4,125.6
	c4.1-12.1,16.3,5.8,26.1,7.1c-5.2,1.1-10.5,0.4-15.7-3c0,9.8-18.9,14.4-20.3-3.8c0-9.8,4.8-12.3,10.9-12.4c9,0,20.7,10.5,32.1,10.5
	c7.4,0,11.2-4.6,11.2-11.7c0-6.9-4.3-11.2-11.6-11.2c-8.6,0-9,13.5-0.9,13.3c4.5,0,6.5-5.6,1.6-8.4c8.4,0,8.8,12.8-2.1,12.5
	c-3.4-0.1-9.4-2.4-9.4-10.2c0.3-6.7,5.6-12,13.7-10.9c-5.9-9.7-1.4-20.5,9.4-20.4c12.7,0.4,15.9,14.5,4.9,18.2
	c0,2.9,8.3,3.9,3.3,12.5c-1.1-9.6-13.4-12.5-10.5-19.2c8.6,9.2,14.5-7.8,2.2-7.3c-3.8-0.1-6.4,2.1-7.7,6.2
	c-2.1,8.7,11.4,13.5,11.4,25c0,8.6-5.2,15.8-15.1,15.9c-7.8,0.2-17.9-6.7-26.3-9.6c-6.5-2.3-12.5-2.5-13.4,6.2
	c-0.1,5.4,0.8,9.8,7.2,9.7C104.7,134.7,104.4,122.8,96.4,125.6L96.4,125.6z M96.4,23.8c4.1,12.1,16.3-5.8,26.1-7.1
	c-5.2-1.1-10.5-0.4-15.7,3c0-9.8-18.9-14.4-20.3,3.8c0,9.8,4.8,12.3,10.9,12.4c9,0,20.7-10.5,32.1-10.5c7.4,0,11.2,4.6,11.2,11.7
	c0,6.9-4.3,11.2-11.6,11.2c-8.6,0-9-13.5-0.9-13.3c4.5,0,6.5,5.6,1.6,8.4c8.4,0,8.8-12.8-2.1-12.5c-3.4,0.1-9.4,2.4-9.4,10.2
	c0.3,6.7,5.6,12,13.7,10.9c-5.9,9.7-1.4,20.5,9.4,20.4c12.7-0.4,15.9-14.5,4.9-18.2c0-2.9,8.3-3.9,3.3-12.5
	c-1.1,9.6-13.4,12.5-10.5,19.2c8.6-9.2,14.5,7.8,2.2,7.3c-3.8,0.1-6.4-2.1-7.7-6.2c-2.1-8.7,11.4-13.5,11.4-25
	c0-8.6-5.2-15.8-15.1-15.9c-7.8-0.2-17.9,6.7-26.3,9.6c-6.5,2.3-12.5,2.5-13.4-6.2c-0.1-5.4,0.8-9.8,7.2-9.7
	C104.7,14.7,104.4,26.6,96.4,23.8L96.4,23.8z M74.9,23.8c-4.1,12.1-16.3-5.8-26.1-7.1c5.2-1.1,10.5-0.4,15.7,3
	c0-9.8,18.9-14.4,20.3,3.8c0,9.8-4.8,12.3-10.9,12.4c-9,0-20.7-10.5-32.1-10.5c-7.4,0-11.3,4.6-11.3,11.7c0,6.9,4.3,11.2,11.6,11.2
	c8.6,0,9-13.5,0.9-13.3c-4.5,0-6.5,5.6-1.6,8.4c-8.4,0-8.8-12.8,2.1-12.5C47,31,52.9,33.3,53,41.1c-0.3,6.7-5.6,12-13.7,10.9
	c5.9,9.7,1.4,20.5-9.4,20.4C17.2,72,14,57.9,24.9,54.2c0-2.9-8.3-3.9-3.3-12.5c1.1,9.6,13.4,12.5,10.5,19.2
	c-8.6-9.2-14.6,7.8-2.2,7.3c3.8,0.1,6.4-2.1,7.7-6.2c2.1-8.7-11.4-13.5-11.4-25c0-8.6,5.2-15.8,15.1-15.9c7.8-0.2,17.9,6.7,26.3,9.6
	c6.5,2.3,12.5,2.5,13.4-6.2c0.1-5.4-0.8-9.8-7.2-9.7C66.5,14.7,66.9,26.6,74.9,23.8L74.9,23.8z M63.4,235.5c0.5,0,0.9,0.4,0.9,0.9
	s-0.4,0.9-0.9,0.9s-0.9-0.4-0.9-0.9S62.9,235.5,63.4,235.5L63.4,235.5z M106.7,235.5c0.5,0,0.9,0.4,0.9,0.9s-0.4,0.9-0.9,0.9
	s-0.9-0.4-0.9-0.9C105.7,235.9,106.2,235.5,106.7,235.5L106.7,235.5z M92.5,239.9c0,0,1,1.3,2.9,1.3c2,0,3.3-1.4,3.3-3.1
	c0-1.7-1.3-3.1-3.3-3.1c-0.7,0-1.2,0.3-1.2,0.3l0,0c0,0,0-0.2,0.1-0.5l0.2-1.7c0-0.2,0.1-0.3,0.3-0.3h1.9c0.2,0,0.3,0.1,0.3,0.3v0.6
	h1.2v-1.2c0-0.6-0.3-0.8-0.8-0.8h-3.3c-0.6,0-0.8,0.3-0.8,0.8l-0.4,3.8l0.5,0.2c0,0,0.7-0.5,1.8-0.5c1.2,0,2.2,0.7,2.2,1.9
	c0,1-0.8,1.9-2,1.9c-1.4,0-2.2-1-2.2-1L92.5,239.9z M85.4,240.8c0,0,0.7,0.4,1.8,0.4c2.9,0,4.2-2.9,4.2-5.3c0-2.6-1.5-4.3-3.5-4.3
	c-1.7,0-3,1.3-3,3.1c0,1.7,1.2,3,2.9,3c0.8,0,1.7-0.3,2.1-0.9l0,0c-0.2,1.6-1.1,3.2-2.8,3.2c-0.7,0-1.3-0.3-1.3-0.3L85.4,240.8z
	 M88.2,236.6c-1.2,0-1.9-0.8-1.9-1.9c0-1.1,0.6-1.9,1.7-1.9c1.2,0,2.1,1.3,2.1,2.5C90,236,89.2,236.6,88.2,236.6L88.2,236.6z
	 M77.9,240.8c0,0,0.7,0.4,1.8,0.4c2.9,0,4.2-2.9,4.2-5.3c0-2.6-1.5-4.3-3.5-4.3c-1.7,0-3,1.3-3,3.1c0,1.7,1.2,3,2.9,3
	c0.8,0,1.7-0.3,2.1-0.9l0,0c-0.2,1.6-1.1,3.2-2.8,3.2c-0.7,0-1.3-0.3-1.3-0.3L77.9,240.8z M80.6,236.6c-1.2,0-1.9-0.8-1.9-1.9
	c0-1.1,0.6-1.9,1.7-1.9c1.2,0,2.1,1.3,2.1,2.5C82.5,236,81.7,236.6,80.6,236.6L80.6,236.6z M71.4,241.1h5.4V240h-2v-8.2h-1.2
	l-2.2,2.2l0.8,0.8l0.9-0.9c0.3-0.3,0.4-0.5,0.4-0.5l0,0c0,0,0,0.3,0,0.6v6h-2v1.1H71.4z M127.9,226.9c0,0,1.2,1.5,3.4,1.5
	c2.1,0,3.3-1.4,3.3-2.9c0-3.4-5-2.9-5-5c0-0.8,0.7-1.4,1.8-1.4c0.8,0,1.6,0.4,1.6,0.9v0.5h1.3v-0.8c0-1.4-1.8-1.9-2.9-1.9
	c-2,0-3.3,1.2-3.3,2.8c0,3.2,5,2.9,5,5.1c0,1-0.8,1.5-1.8,1.5c-1.5,0-2.6-1.2-2.6-1.2L127.9,226.9z M122.1,228.2h1.5v-9.1h2.1
	c0.2,0,0.3,0.1,0.3,0.3v0.7h1.3v-1.4c0-0.7-0.2-0.9-0.9-0.9h-7.1c-0.7,0-0.9,0.2-0.9,0.9v1.4h1.3v-0.7c0-0.2,0.1-0.3,0.3-0.3h2.1
	C122.1,219.1,122.1,228.2,122.1,228.2z M107.6,228.2h1.5c0.7,0,0.9-0.3,0.9-0.9v-5.6c0-0.6-0.1-1.4-0.1-1.4l0,0c0,0,0.5,0.9,0.9,1.4
	l4.6,6.6h1.3v-8.8c0-0.2,0.1-0.3,0.3-0.3h0.6v-1.3h-1.5c-0.7,0-1,0.3-1,0.9v5.6c0,0.6,0.1,1.4,0.1,1.4l0,0c0,0-0.5-0.9-0.9-1.4
	l-4.6-6.6h-1.3v8.8c0,0.2-0.1,0.3-0.3,0.3h-0.6L107.6,228.2L107.6,228.2z M97.5,228.2h0.8c0.7,0,1-0.2,1.2-0.9l0.8-2.1h3.8l0.8,2.1
	c0.2,0.7,0.5,0.9,1.2,0.9h0.8V227h-0.2c-0.3,0-0.4-0.1-0.5-0.3l-3.2-8.8h-1.5l-3.2,8.8c-0.1,0.3-0.2,0.3-0.5,0.3h-0.2v1.2H97.5z
	 M100.7,224l1.1-3.2c0.2-0.5,0.4-1.4,0.4-1.4l0,0c0,0,0.2,0.9,0.4,1.4l1.1,3.2H100.7z M89.7,228.2h1.5v-4.1h1.4c0.6,0,0.8,0.1,1,0.6
	l1.4,2.8c0.3,0.7,0.6,0.8,1.5,0.8h0.7V227H97c-0.4,0-0.6,0-0.7-0.3l-1.2-2.5c-0.2-0.3-0.4-0.5-0.4-0.5l0,0c0.7-0.2,1.9-1,1.9-2.7
	c0-1.9-1.3-3-3.1-3H89v1.3h1v8.9H89.7z M91.1,222.9v-3.7H93c1.1,0,1.8,0.7,1.8,1.8c0,1.2-0.7,1.9-1.8,1.9H91.1z M79,224.6
	c0,2.3,1.6,3.8,4,3.8c2.3,0,3.9-1.5,3.9-3.8v-5.1c0-0.2,0.1-0.3,0.3-0.3h0.6v-1.3h-1.5c-0.7,0-0.9,0.3-0.9,0.9v5.7
	c0,1.6-1,2.5-2.5,2.5s-2.5-0.9-2.5-2.5v-5.7c0-0.7-0.3-0.9-1-0.9h-1.5v1.3h0.6c0.2,0,0.3,0.1,0.3,0.3v5.1H79z M68.5,228.2h0.8
	c0.7,0,1-0.2,1.2-0.9l0.8-2.1h3.8l0.8,2.1c0.3,0.7,0.5,0.9,1.2,0.9h0.8V227h-0.2c-0.3,0-0.4-0.1-0.5-0.3l-3.2-8.8h-1.5l-3.2,8.8
	c-0.1,0.3-0.2,0.3-0.5,0.3h-0.2v1.2H68.5z M71.7,224l1.1-3.2c0.2-0.5,0.4-1.4,0.4-1.4l0,0c0,0,0.2,0.9,0.4,1.4l1.1,3.2H71.7z
	 M64.1,228.2h1.5v-9.1h2.1c0.2,0,0.3,0.1,0.3,0.3v0.7h1.3v-1.4c0-0.7-0.2-0.9-0.9-0.9h-7.1c-0.7,0-0.9,0.2-0.9,0.9v1.4h1.3v-0.7
	c0-0.2,0.1-0.3,0.3-0.3h2.1V228.2z M52.9,226.9c0,0,1.2,1.5,3.4,1.5c2.1,0,3.3-1.4,3.3-2.9c0-3.4-5-2.9-5-5c0-0.8,0.7-1.4,1.8-1.4
	c0.8,0,1.6,0.4,1.6,0.9v0.5h1.3v-0.8c0-1.4-1.8-1.9-2.9-1.9c-2,0-3.3,1.2-3.3,2.8c0,3.2,5,2.9,5,5.1c0,1-0.8,1.5-1.8,1.5
	c-1.5,0-2.6-1.2-2.6-1.2L52.9,226.9z M45.6,227.3c0,0.7,0.3,0.9,1,0.9h4.6c0.7,0,0.9-0.3,0.9-0.9V226h-1.3v0.7
	c0,0.2-0.1,0.3-0.3,0.3h-3c-0.2,0-0.3-0.1-0.3-0.3v-3h3.6v-1.3H47v-3.2h3c0.2,0,0.3,0.1,0.3,0.3v0.7h1.3v-1.3c0-0.7-0.3-0.9-0.9-0.9
	h-6.1v1.3h1V227.3z M36.5,228.2H38v-4.1h1.4c0.6,0,0.8,0.1,1,0.6l1.4,2.8c0.3,0.7,0.6,0.8,1.4,0.8h0.7V227h-0.2
	c-0.4,0-0.6,0-0.7-0.3l-1.2-2.5c-0.2-0.3-0.4-0.5-0.4-0.5l0,0c0.7-0.2,1.9-1,1.9-2.7c0-1.9-1.3-3-3.1-3h-4.5v1.3h1v8.9H36.5z
	 M37.9,222.9v-3.7h1.9c1.1,0,1.8,0.7,1.8,1.8c0,1.2-0.7,1.9-1.8,1.9H37.9z M20.5,199.1c-8.3,1.8-13.3-7.3-8.2-13.4
	c3.4-4,10.4-6.2,15.5-7.1c1.3-0.2,3.7-0.4,4.1-0.4c-0.1,1.6-0.3,3.3-0.6,5.2C30.1,190.5,27.5,197.5,20.5,199.1L20.5,199.1z
	 M49.3,197.5c-1.5,1.4-4.4,2.4-5.9,1c-3.4-3-3.1-11.2-3.1-18c0-0.9,0-1.8,0-2.7c0.1-4.9,0.2-19.7-16.7-19.7c-3.9,0-7.6,0.8-8.8,1.1
	c-5.5,1.3-9.1,4.2-8.7,9c3-2.4,7.7-4.7,14.4-4.8c0.8,0,0,0,0,0c5.1,0.1,9.8,2.2,11,9.4c0,0-2,0.4-2.4,0.5
	c-9.7,2.1-18.9,4.1-24.5,9.6c-5.3,5.2-6.6,12.3-1.9,17.8c8.2,9.7,22.6,2.3,29.4-3.7C31.2,208.4,50.4,205.1,49.3,197.5L49.3,197.5z
	 M120.8,159.4c-7.4,12.9-15.1,25.6-22.6,38.4c7.2-0.9,18.3,2.1,22-2.3c0,11.7-21.3,7-33.9,7.9c5-12.7,15-25.3,21.5-38.4
	c-6.3-1.1-16.6-1.1-21.5,1.1C88.9,154.9,108.6,160.9,120.8,159.4L120.8,159.4z M131.7,158c-0.3,1.9-1,3.5-1.7,6.3
	c-3,13.3-0.9,37.6,12.4,34.3c15.8-4,3.2-38.3,22-40.6c-2.1,4.9-3.1,12.7-3,20.4c0.1,7.4,0.2,17.5,3,19.7c1.5,1.2,4.2,0.4,5.6-1.2
	c1,8.3-17.3,11.9-16.3-0.6c-6.5,6.6-21,14.2-29.3,4C117.1,191.4,118.2,158.7,131.7,158L131.7,158z"/>
</svg>
