<svg version="1.1" id="Layer_1" xmlns="http://www.w3.org/2000/svg" x="0" y="0" viewBox="0 0 170.1 241.2" xml:space="preserve"><path d="M48.1 158c4.8 1.2 9.1 2.9 10.1 7.8C63 155.3 86 155.3 85 169.2c-.3 4.1-2.8 7.2-7.8 7.8 1.9-7.5-1.5-14.6-8.9-13.4-14.3 2.2-1.2 40.8-17.9 41.9 1.4-14.4 2.6-36-2.3-47.5zM85.7 0c-1.4 1.8-2.1 3.9-2 6.7-3.5-2.3-6.6-1.4-9.7-.1 5.3 1 10 2.9 11.7 9.1 1.8-6.1 6.4-8.1 11.7-9.1-3.1-1.3-6.2-2.3-9.7.1.1-2.8-.6-4.9-2-6.7zm0 149.4c-1.4-1.8-2.1-3.9-2-6.7-3.5 2.3-6.6 1.4-9.7.1 5.3-1 10-2.9 11.7-9.1 1.8 6.2 6.4 8.1 11.7 9.1-3.1 1.3-6.2 2.3-9.7-.1.1 2.8-.6 5-2 6.7zm75.1-74.7c-1.8-1.4-3.9-2.1-6.7-2 2.3-3.5 1.4-6.6.1-9.7-1 5.3-2.9 10-9.1 11.7 6.1 1.8 8.1 6.4 9.1 11.7 1.3-3.1 2.3-6.2-.1-9.7 2.8.1 4.9-.6 6.7-2zm-151.5 0c1.8-1.4 3.9-2.1 6.7-2-2.3-3.5-1.4-6.6-.1-9.7 1 5.3 2.9 10 9.1 11.7-6.2 1.8-8.1 6.4-9.1 11.7-1.3-3.1-2.3-6.2.1-9.7-2.8.1-4.9-.6-6.7-2zm65.6 50.9c-4.1-12.1-16.3 5.8-26.1 7.1 5.2 1.1 10.5.4 15.7-3 0 9.8 18.9 14.4 20.3-3.8 0-9.8-4.8-12.3-10.9-12.4-9 0-20.7 10.5-32.1 10.5-7.4 0-11.3-4.6-11.3-11.7 0-6.9 4.3-11.2 11.6-11.2 8.6 0 9 13.5.9 13.3-4.5 0-6.5-5.6-1.6-8.4-8.4 0-8.8 12.8 2.1 12.5 3.4-.1 9.4-2.4 9.4-10.2-.3-6.7-5.6-12-13.7-10.9 5.9-9.7 1.4-20.5-9.4-20.4-12.6.4-15.8 14.5-4.9 18.2 0 2.9-8.3 3.9-3.3 12.5 1.1-9.6 13.4-12.5 10.5-19.2-8.6 9.2-14.6-7.8-2.2-7.3 3.8-.1 6.4 2.1 7.7 6.2 2.1 8.7-11.4 13.5-11.4 25 0 8.6 5.2 15.8 15.1 15.9 7.8.2 17.9-6.7 26.3-9.6 6.5-2.3 12.5-2.5 13.4 6.2.1 5.4-.8 9.8-7.2 9.7-7.3.1-6.9-11.8 1.1-9zm44.8-29.2c-2.1 1.9-6 3.3-8.1 1.4-4.6-4.2-4.2-15.5-4.3-24.9v-3.7c.2-6.7.3-27.1-23-27.1-5.4 0-10.4 1-12.1 1.5-7.5 1.9-12.5 5.8-12 12.4 4.2-3.3 10.7-6.5 19.8-6.6 1 0 0 0 0 0 7 .1 13.6 3.1 15.2 13 0 0-2.7.6-3.3.7-13.3 2.9-26 5.7-33.7 13.2-7.3 7.2-9 16.9-2.7 24.5 11.3 13.3 31.2 3.2 40.5-5.1-1.3 15.7 25.1 11.1 23.7.7zm-39.8 2.2c-11.4 2.5-18.3-10.1-11.3-18.4 4.7-5.6 14.3-8.6 21.4-9.8 1.8-.3 5.1-.6 5.7-.6-.1 2.2-.4 4.5-.8 7.1-1.8 9.9-5.3 19.6-15 21.7zm16.5 27c4.1-12.1 16.3 5.8 26.1 7.1-5.2 1.1-10.5.4-15.7-3 0 9.8-18.9 14.4-20.3-3.8 0-9.8 4.8-12.3 10.9-12.4 9 0 20.7 10.5 32.1 10.5 7.4 0 11.2-4.6 11.2-11.7 0-6.9-4.3-11.2-11.6-11.2-8.6 0-9 13.5-.9 13.3 4.5 0 6.5-5.6 1.6-8.4 8.4 0 8.8 12.8-2.1 12.5-3.4-.1-9.4-2.4-9.4-10.2.3-6.7 5.6-12 13.7-10.9-5.9-9.7-1.4-20.5 9.4-20.4 12.7.4 15.9 14.5 4.9 18.2 0 2.9 8.3 3.9 3.3 12.5-1.1-9.6-13.4-12.5-10.5-19.2 8.6 9.2 14.5-7.8 2.2-7.3-3.8-.1-6.4 2.1-7.7 6.2-2.1 8.7 11.4 13.5 11.4 25 0 8.6-5.2 15.8-15.1 15.9-7.8.2-17.9-6.7-26.3-9.6-6.5-2.3-12.5-2.5-13.4 6.2-.1 5.4.8 9.8 7.2 9.7 7.3.1 7-11.8-1-9zm0-101.8c4.1 12.1 16.3-5.8 26.1-7.1-5.2-1.1-10.5-.4-15.7 3 0-9.8-18.9-14.4-20.3 3.8 0 9.8 4.8 12.3 10.9 12.4 9 0 20.7-10.5 32.1-10.5 7.4 0 11.2 4.6 11.2 11.7 0 6.9-4.3 11.2-11.6 11.2-8.6 0-9-13.5-.9-13.3 4.5 0 6.5 5.6 1.6 8.4 8.4 0 8.8-12.8-2.1-12.5-3.4.1-9.4 2.4-9.4 10.2.3 6.7 5.6 12 13.7 10.9-5.9 9.7-1.4 20.5 9.4 20.4 12.7-.4 15.9-14.5 4.9-18.2 0-2.9 8.3-3.9 3.3-12.5-1.1 9.6-13.4 12.5-10.5 19.2 8.6-9.2 14.5 7.8 2.2 7.3-3.8.1-6.4-2.1-7.7-6.2-2.1-8.7 11.4-13.5 11.4-25 0-8.6-5.2-15.8-15.1-15.9-7.8-.2-17.9 6.7-26.3 9.6-6.5 2.3-12.5 2.5-13.4-6.2-.1-5.4.8-9.8 7.2-9.7 7.3-.1 7 11.8-1 9zm-21.5 0c-4.1 12.1-16.3-5.8-26.1-7.1 5.2-1.1 10.5-.4 15.7 3 0-9.8 18.9-14.4 20.3 3.8 0 9.8-4.8 12.3-10.9 12.4-9 0-20.7-10.5-32.1-10.5-7.4 0-11.3 4.6-11.3 11.7 0 6.9 4.3 11.2 11.6 11.2 8.6 0 9-13.5.9-13.3-4.5 0-6.5 5.6-1.6 8.4-8.4 0-8.8-12.8 2.1-12.5 3.5.1 9.4 2.4 9.5 10.2-.3 6.7-5.6 12-13.7 10.9 5.9 9.7 1.4 20.5-9.4 20.4-12.7-.4-15.9-14.5-5-18.2 0-2.9-8.3-3.9-3.3-12.5 1.1 9.6 13.4 12.5 10.5 19.2-8.6-9.2-14.6 7.8-2.2 7.3 3.8.1 6.4-2.1 7.7-6.2 2.1-8.7-11.4-13.5-11.4-25 0-8.6 5.2-15.8 15.1-15.9 7.8-.2 17.9 6.7 26.3 9.6 6.5 2.3 12.5 2.5 13.4-6.2.1-5.4-.8-9.8-7.2-9.7-7.3-.1-6.9 11.8 1.1 9zM63.4 235.5c.5 0 .9.4.9.9s-.4.9-.9.9-.9-.4-.9-.9.4-.9.9-.9zm43.3 0c.5 0 .9.4.9.9s-.4.9-.9.9-.9-.4-.9-.9c-.1-.5.4-.9.9-.9zm-14.2 4.4s1 1.3 2.9 1.3c2 0 3.3-1.4 3.3-3.1 0-1.7-1.3-3.1-3.3-3.1-.7 0-1.2.3-1.2.3s0-.2.1-.5l.2-1.7c0-.2.1-.3.3-.3h1.9c.2 0 .3.1.3.3v.6h1.2v-1.2c0-.6-.3-.8-.8-.8h-3.3c-.6 0-.8.3-.8.8l-.4 3.8.5.2s.7-.5 1.8-.5c1.2 0 2.2.7 2.2 1.9 0 1-.8 1.9-2 1.9-1.4 0-2.2-1-2.2-1l-.7 1.1zm-7.1.9s.7.4 1.8.4c2.9 0 4.2-2.9 4.2-5.3 0-2.6-1.5-4.3-3.5-4.3-1.7 0-3 1.3-3 3.1 0 1.7 1.2 3 2.9 3 .8 0 1.7-.3 2.1-.9-.2 1.6-1.1 3.2-2.8 3.2-.7 0-1.3-.3-1.3-.3l-.4 1.1zm2.8-4.2c-1.2 0-1.9-.8-1.9-1.9 0-1.1.6-1.9 1.7-1.9 1.2 0 2.1 1.3 2.1 2.5-.1.7-.9 1.3-1.9 1.3zm-10.3 4.2s.7.4 1.8.4c2.9 0 4.2-2.9 4.2-5.3 0-2.6-1.5-4.3-3.5-4.3-1.7 0-3 1.3-3 3.1 0 1.7 1.2 3 2.9 3 .8 0 1.7-.3 2.1-.9-.2 1.6-1.1 3.2-2.8 3.2-.7 0-1.3-.3-1.3-.3l-.4 1.1zm2.7-4.2c-1.2 0-1.9-.8-1.9-1.9 0-1.1.6-1.9 1.7-1.9 1.2 0 2.1 1.3 2.1 2.5 0 .7-.8 1.3-1.9 1.3zm-9.2 4.5h5.4V240h-2v-8.2h-1.2l-2.2 2.2.8.8.9-.9c.3-.3.4-.5.4-.5v6.6h-2v1.1h-.1zm56.5-14.2s1.2 1.5 3.4 1.5c2.1 0 3.3-1.4 3.3-2.9 0-3.4-5-2.9-5-5 0-.8.7-1.4 1.8-1.4.8 0 1.6.4 1.6.9v.5h1.3v-.8c0-1.4-1.8-1.9-2.9-1.9-2 0-3.3 1.2-3.3 2.8 0 3.2 5 2.9 5 5.1 0 1-.8 1.5-1.8 1.5-1.5 0-2.6-1.2-2.6-1.2l-.8.9zm-5.8 1.3h1.5v-9.1h2.1c.2 0 .3.1.3.3v.7h1.3v-1.4c0-.7-.2-.9-.9-.9h-7.1c-.7 0-.9.2-.9.9v1.4h1.3v-.7c0-.2.1-.3.3-.3h2.1v9.1zm-14.5 0h1.5c.7 0 .9-.3.9-.9v-5.6c0-.6-.1-1.4-.1-1.4s.5.9.9 1.4l4.6 6.6h1.3v-8.8c0-.2.1-.3.3-.3h.6v-1.3h-1.5c-.7 0-1 .3-1 .9v5.6c0 .6.1 1.4.1 1.4s-.5-.9-.9-1.4l-4.6-6.6h-1.3v8.8c0 .2-.1.3-.3.3h-.6l.1 1.3zm-10.1 0h.8c.7 0 1-.2 1.2-.9l.8-2.1h3.8l.8 2.1c.2.7.5.9 1.2.9h.8V227h-.2c-.3 0-.4-.1-.5-.3l-3.2-8.8h-1.5l-3.2 8.8c-.1.3-.2.3-.5.3h-.2v1.2h-.1zm3.2-4.2l1.1-3.2c.2-.5.4-1.4.4-1.4s.2.9.4 1.4l1.1 3.2h-3zm-11 4.2h1.5v-4.1h1.4c.6 0 .8.1 1 .6l1.4 2.8c.3.7.6.8 1.5.8h.7V227H97c-.4 0-.6 0-.7-.3l-1.2-2.5c-.2-.3-.4-.5-.4-.5.7-.2 1.9-1 1.9-2.7 0-1.9-1.3-3-3.1-3H89v1.3h1v8.9h-.3zm1.4-5.3v-3.7H93c1.1 0 1.8.7 1.8 1.8 0 1.2-.7 1.9-1.8 1.9h-1.9zM79 224.6c0 2.3 1.6 3.8 4 3.8 2.3 0 3.9-1.5 3.9-3.8v-5.1c0-.2.1-.3.3-.3h.6v-1.3h-1.5c-.7 0-.9.3-.9.9v5.7c0 1.6-1 2.5-2.5 2.5s-2.5-.9-2.5-2.5v-5.7c0-.7-.3-.9-1-.9h-1.5v1.3h.6c.2 0 .3.1.3.3v5.1h.2zm-10.5 3.6h.8c.7 0 1-.2 1.2-.9l.8-2.1h3.8l.8 2.1c.3.7.5.9 1.2.9h.8V227h-.2c-.3 0-.4-.1-.5-.3l-3.2-8.8h-1.5l-3.2 8.8c-.1.3-.2.3-.5.3h-.2v1.2h-.1zm3.2-4.2l1.1-3.2c.2-.5.4-1.4.4-1.4s.2.9.4 1.4l1.1 3.2h-3zm-7.6 4.2h1.5v-9.1h2.1c.2 0 .3.1.3.3v.7h1.3v-1.4c0-.7-.2-.9-.9-.9h-7.1c-.7 0-.9.2-.9.9v1.4h1.3v-.7c0-.2.1-.3.3-.3h2.1v9.1zm-11.2-1.3s1.2 1.5 3.4 1.5c2.1 0 3.3-1.4 3.3-2.9 0-3.4-5-2.9-5-5 0-.8.7-1.4 1.8-1.4.8 0 1.6.4 1.6.9v.5h1.3v-.8c0-1.4-1.8-1.9-2.9-1.9-2 0-3.3 1.2-3.3 2.8 0 3.2 5 2.9 5 5.1 0 1-.8 1.5-1.8 1.5-1.5 0-2.6-1.2-2.6-1.2l-.8.9zm-7.3.4c0 .7.3.9 1 .9h4.6c.7 0 .9-.3.9-.9V226h-1.3v.7c0 .2-.1.3-.3.3h-3c-.2 0-.3-.1-.3-.3v-3h3.6v-1.3H47v-3.2h3c.2 0 .3.1.3.3v.7h1.3v-1.3c0-.7-.3-.9-.9-.9h-6.1v1.3h1v8zm-9.1.9H38v-4.1h1.4c.6 0 .8.1 1 .6l1.4 2.8c.3.7.6.8 1.4.8h.7V227h-.2c-.4 0-.6 0-.7-.3l-1.2-2.5c-.2-.3-.4-.5-.4-.5.7-.2 1.9-1 1.9-2.7 0-1.9-1.3-3-3.1-3h-4.5v1.3h1v8.9h-.2zm1.4-5.3v-3.7h1.9c1.1 0 1.8.7 1.8 1.8 0 1.2-.7 1.9-1.8 1.9h-1.9zm-17.4-23.8c-8.3 1.8-13.3-7.3-8.2-13.4 3.4-4 10.4-6.2 15.5-7.1 1.3-.2 3.7-.4 4.1-.4-.1 1.6-.3 3.3-.6 5.2-1.2 7.1-3.8 14.1-10.8 15.7zm28.8-1.6c-1.5 1.4-4.4 2.4-5.9 1-3.4-3-3.1-11.2-3.1-18v-2.7c.1-4.9.2-19.7-16.7-19.7-3.9 0-7.6.8-8.8 1.1-5.5 1.3-9.1 4.2-8.7 9 3-2.4 7.7-4.7 14.4-4.8.8 0 0 0 0 0 5.1.1 9.8 2.2 11 9.4 0 0-2 .4-2.4.5-9.7 2.1-18.9 4.1-24.5 9.6-5.3 5.2-6.6 12.3-1.9 17.8 8.2 9.7 22.6 2.3 29.4-3.7-.9 11.4 18.3 8.1 17.2.5zm71.5-38.1c-7.4 12.9-15.1 25.6-22.6 38.4 7.2-.9 18.3 2.1 22-2.3 0 11.7-21.3 7-33.9 7.9 5-12.7 15-25.3 21.5-38.4-6.3-1.1-16.6-1.1-21.5 1.1 2.6-11.2 22.3-5.2 34.5-6.7zm10.9-1.4c-.3 1.9-1 3.5-1.7 6.3-3 13.3-.9 37.6 12.4 34.3 15.8-4 3.2-38.3 22-40.6-2.1 4.9-3.1 12.7-3 20.4.1 7.4.2 17.5 3 19.7 1.5 1.2 4.2.4 5.6-1.2 1 8.3-17.3 11.9-16.3-.6-6.5 6.6-21 14.2-29.3 4-7.3-8.9-6.2-41.6 7.3-42.3z" fill="#e5c26a"/></svg>